<mxfile host="app.diagrams.net" modified="2024-05-02T09:37:05.821Z" agent="Mozilla/5.0 (Windows NT 10.0; Win64; x64) AppleWebKit/537.36 (KHTML, like Gecko) Chrome/124.0.0.0 Safari/537.36" etag="3expapeGLLRgCEGJfXVH" version="24.2.2" type="device" pages="6">
  <diagram name="авторизация исследователя" id="13e1069c-82ec-6db2-03f1-153e76fe0fe0">
    <mxGraphModel dx="1022" dy="1334" grid="1" gridSize="10" guides="1" tooltips="1" connect="1" arrows="1" fold="1" page="1" pageScale="1" pageWidth="1100" pageHeight="850" background="none" math="0" shadow="0">
      <root>
        <mxCell id="0" />
        <mxCell id="1" parent="0" />
        <mxCell id="7baba1c4bc27f4b0-2" value=":Форма авторизации" style="shape=umlLifeline;perimeter=lifelinePerimeter;whiteSpace=wrap;html=1;container=1;collapsible=0;recursiveResize=0;outlineConnect=0;rounded=1;shadow=0;comic=0;labelBackgroundColor=none;strokeWidth=1;fontFamily=Verdana;fontSize=12;align=center;" parent="1" vertex="1">
          <mxGeometry x="340" y="-540" width="100" height="340" as="geometry" />
        </mxCell>
        <mxCell id="7baba1c4bc27f4b0-10" value="" style="html=1;points=[];perimeter=orthogonalPerimeter;rounded=0;shadow=0;comic=0;labelBackgroundColor=none;strokeWidth=1;fontFamily=Verdana;fontSize=12;align=center;" parent="7baba1c4bc27f4b0-2" vertex="1">
          <mxGeometry x="45" y="100" width="10" height="200" as="geometry" />
        </mxCell>
        <mxCell id="ZRWsR41yTm6RzVS45-ta-1" value="" style="endArrow=none;html=1;rounded=0;" parent="7baba1c4bc27f4b0-2" edge="1">
          <mxGeometry width="50" height="50" relative="1" as="geometry">
            <mxPoint x="30" y="240" as="sourcePoint" />
            <mxPoint x="70" y="240" as="targetPoint" />
            <Array as="points">
              <mxPoint x="55" y="230" />
            </Array>
          </mxGeometry>
        </mxCell>
        <mxCell id="7baba1c4bc27f4b0-3" value=":User" style="shape=umlLifeline;perimeter=lifelinePerimeter;whiteSpace=wrap;html=1;container=1;collapsible=0;recursiveResize=0;outlineConnect=0;rounded=1;shadow=0;comic=0;labelBackgroundColor=none;strokeWidth=1;fontFamily=Verdana;fontSize=12;align=center;" parent="1" vertex="1">
          <mxGeometry x="500" y="-540" width="100" height="340" as="geometry" />
        </mxCell>
        <mxCell id="7baba1c4bc27f4b0-13" value="" style="html=1;points=[];perimeter=orthogonalPerimeter;rounded=0;shadow=0;comic=0;labelBackgroundColor=none;strokeWidth=1;fontFamily=Verdana;fontSize=12;align=center;" parent="7baba1c4bc27f4b0-3" vertex="1">
          <mxGeometry x="45" y="180" width="10" height="30" as="geometry" />
        </mxCell>
        <mxCell id="7baba1c4bc27f4b0-14" value="Login(login, password)" style="html=1;verticalAlign=bottom;endArrow=block;entryX=0;entryY=0;labelBackgroundColor=none;fontFamily=Verdana;fontSize=12;edgeStyle=elbowEdgeStyle;elbow=horizontal;" parent="7baba1c4bc27f4b0-3" edge="1">
          <mxGeometry x="0.001" relative="1" as="geometry">
            <mxPoint x="-105" y="180.15384615384608" as="sourcePoint" />
            <mxPoint x="44.99999999999977" y="180.0000000000001" as="targetPoint" />
            <mxPoint as="offset" />
          </mxGeometry>
        </mxCell>
        <mxCell id="-gMagWzI07P7nXnVrXrL-30" style="rounded=0;orthogonalLoop=1;jettySize=auto;html=1;endArrow=none;endFill=0;dashed=1;" parent="1" edge="1">
          <mxGeometry relative="1" as="geometry">
            <mxPoint x="185" y="-200" as="targetPoint" />
            <mxPoint x="185" y="-480" as="sourcePoint" />
          </mxGeometry>
        </mxCell>
        <mxCell id="-gMagWzI07P7nXnVrXrL-1" value="Исследователь" style="shape=umlActor;verticalLabelPosition=bottom;verticalAlign=top;html=1;outlineConnect=0;" parent="1" vertex="1">
          <mxGeometry x="170" y="-570" width="30" height="60" as="geometry" />
        </mxCell>
        <mxCell id="-gMagWzI07P7nXnVrXrL-22" value="ввод логина" style="rounded=0;orthogonalLoop=1;jettySize=auto;html=1;entryX=0.006;entryY=0.88;entryDx=0;entryDy=0;entryPerimeter=0;" parent="1" edge="1">
          <mxGeometry x="0.0025" y="10" relative="1" as="geometry">
            <mxPoint x="190" y="-440" as="sourcePoint" />
            <mxPoint x="385.05999999999983" y="-440" as="targetPoint" />
            <mxPoint as="offset" />
          </mxGeometry>
        </mxCell>
        <mxCell id="7baba1c4bc27f4b0-9" value="" style="html=1;points=[];perimeter=orthogonalPerimeter;rounded=0;shadow=0;comic=0;labelBackgroundColor=none;strokeWidth=1;fontFamily=Verdana;fontSize=12;align=center;" parent="1" vertex="1">
          <mxGeometry x="180" y="-450" width="10" height="230" as="geometry" />
        </mxCell>
        <mxCell id="-gMagWzI07P7nXnVrXrL-8" style="rounded=0;orthogonalLoop=1;jettySize=auto;html=1;dashed=1;entryX=0.993;entryY=0.651;entryDx=0;entryDy=0;entryPerimeter=0;" parent="1" edge="1">
          <mxGeometry relative="1" as="geometry">
            <mxPoint x="545" y="-330" as="sourcePoint" />
            <mxPoint x="394.92999999999995" y="-330" as="targetPoint" />
          </mxGeometry>
        </mxCell>
        <mxCell id="-gMagWzI07P7nXnVrXrL-9" value="&lt;div style=&quot;font-size: 12px;&quot;&gt;&lt;font face=&quot;Verdana&quot; style=&quot;font-size: 12px;&quot;&gt;return&lt;/font&gt;&lt;/div&gt;" style="edgeLabel;html=1;align=center;verticalAlign=middle;resizable=0;points=[];" parent="-gMagWzI07P7nXnVrXrL-8" vertex="1" connectable="0">
          <mxGeometry x="0.4907" relative="1" as="geometry">
            <mxPoint x="37" y="-10" as="offset" />
          </mxGeometry>
        </mxCell>
        <mxCell id="-gMagWzI07P7nXnVrXrL-10" value=":Форма заявок" style="shape=umlLifeline;perimeter=lifelinePerimeter;whiteSpace=wrap;html=1;container=0;collapsible=0;recursiveResize=0;outlineConnect=0;rounded=1;shadow=0;comic=0;labelBackgroundColor=none;strokeWidth=1;fontFamily=Verdana;fontSize=12;align=center;" parent="1" vertex="1">
          <mxGeometry x="650" y="-540" width="140" height="340" as="geometry" />
        </mxCell>
        <mxCell id="-gMagWzI07P7nXnVrXrL-11" value="" style="html=1;points=[];perimeter=orthogonalPerimeter;rounded=0;shadow=0;comic=0;labelBackgroundColor=none;strokeWidth=1;fontFamily=Verdana;fontSize=12;align=center;" parent="1" vertex="1">
          <mxGeometry x="715" y="-300" width="10" height="80" as="geometry" />
        </mxCell>
        <mxCell id="-gMagWzI07P7nXnVrXrL-24" value="ввод пароля" style="rounded=0;orthogonalLoop=1;jettySize=auto;html=1;entryX=0.006;entryY=0.88;entryDx=0;entryDy=0;entryPerimeter=0;" parent="1" edge="1">
          <mxGeometry x="0.0025" y="10" relative="1" as="geometry">
            <mxPoint x="190" y="-416" as="sourcePoint" />
            <mxPoint x="385" y="-416" as="targetPoint" />
            <mxPoint as="offset" />
          </mxGeometry>
        </mxCell>
        <mxCell id="-gMagWzI07P7nXnVrXrL-25" value="нажатие на кнопку &quot;Войти&quot;" style="rounded=0;orthogonalLoop=1;jettySize=auto;html=1;entryX=0.006;entryY=0.88;entryDx=0;entryDy=0;entryPerimeter=0;" parent="1" edge="1">
          <mxGeometry x="0.0025" y="10" relative="1" as="geometry">
            <mxPoint x="190" y="-390" as="sourcePoint" />
            <mxPoint x="385" y="-390" as="targetPoint" />
            <mxPoint as="offset" />
          </mxGeometry>
        </mxCell>
        <mxCell id="-gMagWzI07P7nXnVrXrL-27" value="&lt;div&gt;[false]&lt;/div&gt;" style="rounded=0;orthogonalLoop=1;jettySize=auto;html=1;entryX=1.3;entryY=0.277;entryDx=0;entryDy=0;entryPerimeter=0;dashed=1;" parent="1" edge="1">
          <mxGeometry x="-0.0104" y="-12" relative="1" as="geometry">
            <mxPoint x="370" y="-300" as="sourcePoint" />
            <mxPoint x="190" y="-300" as="targetPoint" />
            <mxPoint as="offset" />
          </mxGeometry>
        </mxCell>
        <mxCell id="-gMagWzI07P7nXnVrXrL-28" style="rounded=0;orthogonalLoop=1;jettySize=auto;html=1;exitX=-0.02;exitY=1;exitDx=0;exitDy=0;exitPerimeter=0;" parent="1" source="-gMagWzI07P7nXnVrXrL-11" edge="1">
          <mxGeometry relative="1" as="geometry">
            <mxPoint x="190" y="-220" as="targetPoint" />
          </mxGeometry>
        </mxCell>
        <mxCell id="-gMagWzI07P7nXnVrXrL-31" value="&lt;div&gt;LoadForm()&lt;/div&gt;" style="edgeLabel;html=1;align=center;verticalAlign=middle;resizable=0;points=[];" parent="-gMagWzI07P7nXnVrXrL-28" vertex="1" connectable="0">
          <mxGeometry x="0.1589" y="-1" relative="1" as="geometry">
            <mxPoint x="59" y="-13" as="offset" />
          </mxGeometry>
        </mxCell>
        <mxCell id="60afa_PBn1O6CKFtGZlj-1" value="Авторизация пользователя &quot;Исследователь&quot;" style="shape=note;size=20;whiteSpace=wrap;html=1;" parent="1" vertex="1">
          <mxGeometry x="120" y="-650" width="130" height="50" as="geometry" />
        </mxCell>
        <mxCell id="-gMagWzI07P7nXnVrXrL-17" style="rounded=0;orthogonalLoop=1;jettySize=auto;html=1;entryX=-0.129;entryY=0.002;entryDx=0;entryDy=0;entryPerimeter=0;" parent="1" target="-gMagWzI07P7nXnVrXrL-11" edge="1">
          <mxGeometry relative="1" as="geometry">
            <mxPoint x="410" y="-300" as="sourcePoint" />
            <mxPoint x="720.23" y="-300.32" as="targetPoint" />
            <Array as="points" />
          </mxGeometry>
        </mxCell>
        <mxCell id="-gMagWzI07P7nXnVrXrL-19" value="[true]" style="edgeLabel;html=1;align=center;verticalAlign=middle;resizable=0;points=[];" parent="-gMagWzI07P7nXnVrXrL-17" vertex="1" connectable="0">
          <mxGeometry x="-0.3234" relative="1" as="geometry">
            <mxPoint x="-38" y="-10" as="offset" />
          </mxGeometry>
        </mxCell>
      </root>
    </mxGraphModel>
  </diagram>
  <diagram id="eaR52B4qTNkMMYnvPou2" name="подача заявки">
    <mxGraphModel dx="1906" dy="1680" grid="1" gridSize="10" guides="1" tooltips="1" connect="1" arrows="1" fold="1" page="1" pageScale="1" pageWidth="827" pageHeight="1169" math="0" shadow="0">
      <root>
        <mxCell id="0" />
        <mxCell id="1" parent="0" />
        <mxCell id="UjqB-52qs5zZ1BAxD0Iv-1" value=":Форма добавления заявки" style="shape=umlLifeline;perimeter=lifelinePerimeter;whiteSpace=wrap;html=1;container=0;collapsible=0;recursiveResize=0;outlineConnect=0;rounded=1;shadow=0;comic=0;labelBackgroundColor=none;strokeWidth=1;fontFamily=Verdana;fontSize=12;align=center;" parent="1" vertex="1">
          <mxGeometry x="-520" y="-940" width="140" height="600" as="geometry" />
        </mxCell>
        <mxCell id="UjqB-52qs5zZ1BAxD0Iv-7" value=":OrganizationMember" style="shape=umlLifeline;perimeter=lifelinePerimeter;whiteSpace=wrap;html=1;container=1;collapsible=0;recursiveResize=0;outlineConnect=0;rounded=1;shadow=0;comic=0;labelBackgroundColor=none;strokeWidth=1;fontFamily=Verdana;fontSize=12;align=center;" parent="1" vertex="1">
          <mxGeometry x="-326" y="-940" width="140" height="600" as="geometry" />
        </mxCell>
        <mxCell id="UjqB-52qs5zZ1BAxD0Iv-8" value="" style="html=1;points=[];perimeter=orthogonalPerimeter;rounded=0;shadow=0;comic=0;labelBackgroundColor=none;strokeWidth=1;fontFamily=Verdana;fontSize=12;align=center;" parent="UjqB-52qs5zZ1BAxD0Iv-7" vertex="1">
          <mxGeometry x="65" y="360" width="10" height="30" as="geometry" />
        </mxCell>
        <mxCell id="DOWoD25lylzkpD3WHDMk-8" style="rounded=0;orthogonalLoop=1;jettySize=auto;html=1;entryX=0.005;entryY=0.008;entryDx=0;entryDy=0;entryPerimeter=0;" parent="UjqB-52qs5zZ1BAxD0Iv-7" target="WfiCJRezlwqFXNxfQphz-1" edge="1">
          <mxGeometry relative="1" as="geometry">
            <mxPoint x="-104" y="480" as="sourcePoint" />
            <mxPoint x="216.12999999999965" y="480.0000000000001" as="targetPoint" />
            <Array as="points" />
          </mxGeometry>
        </mxCell>
        <mxCell id="DOWoD25lylzkpD3WHDMk-9" value="[true] AddApplicationInfo(info[])" style="edgeLabel;html=1;align=center;verticalAlign=middle;resizable=0;points=[];" parent="DOWoD25lylzkpD3WHDMk-8" vertex="1" connectable="0">
          <mxGeometry x="-0.3234" relative="1" as="geometry">
            <mxPoint x="-30" y="-10" as="offset" />
          </mxGeometry>
        </mxCell>
        <mxCell id="UjqB-52qs5zZ1BAxD0Iv-10" style="rounded=0;orthogonalLoop=1;jettySize=auto;html=1;endArrow=none;endFill=0;dashed=1;" parent="1" edge="1">
          <mxGeometry relative="1" as="geometry">
            <mxPoint x="-705" y="-340" as="targetPoint" />
            <mxPoint x="-705" y="-880" as="sourcePoint" />
          </mxGeometry>
        </mxCell>
        <mxCell id="UjqB-52qs5zZ1BAxD0Iv-11" value="Исследователь" style="shape=umlActor;verticalLabelPosition=bottom;verticalAlign=top;html=1;outlineConnect=0;" parent="1" vertex="1">
          <mxGeometry x="-720" y="-970" width="30" height="60" as="geometry" />
        </mxCell>
        <mxCell id="UjqB-52qs5zZ1BAxD0Iv-12" value="ввод названия проекта" style="rounded=0;orthogonalLoop=1;jettySize=auto;html=1;entryX=0.006;entryY=0.88;entryDx=0;entryDy=0;entryPerimeter=0;exitX=1.1;exitY=0.02;exitDx=0;exitDy=0;exitPerimeter=0;" parent="1" source="UjqB-52qs5zZ1BAxD0Iv-13" edge="1">
          <mxGeometry x="0.0025" y="10" relative="1" as="geometry">
            <mxPoint x="-690" y="-840" as="sourcePoint" />
            <mxPoint x="-454.94000000000017" y="-840" as="targetPoint" />
            <mxPoint as="offset" />
          </mxGeometry>
        </mxCell>
        <mxCell id="UjqB-52qs5zZ1BAxD0Iv-13" value="" style="html=1;points=[];perimeter=orthogonalPerimeter;rounded=0;shadow=0;comic=0;labelBackgroundColor=none;strokeWidth=1;fontFamily=Verdana;fontSize=12;align=center;" parent="1" vertex="1">
          <mxGeometry x="-710" y="-850" width="10" height="470" as="geometry" />
        </mxCell>
        <mxCell id="UjqB-52qs5zZ1BAxD0Iv-16" value=":Application" style="shape=umlLifeline;perimeter=lifelinePerimeter;whiteSpace=wrap;html=1;container=0;collapsible=0;recursiveResize=0;outlineConnect=0;rounded=1;shadow=0;comic=0;labelBackgroundColor=none;strokeWidth=1;fontFamily=Verdana;fontSize=12;align=center;" parent="1" vertex="1">
          <mxGeometry x="-170" y="-940" width="140" height="600" as="geometry" />
        </mxCell>
        <mxCell id="UjqB-52qs5zZ1BAxD0Iv-17" value="" style="html=1;points=[];perimeter=orthogonalPerimeter;rounded=0;shadow=0;comic=0;labelBackgroundColor=none;strokeWidth=1;fontFamily=Verdana;fontSize=12;align=center;" parent="1" vertex="1">
          <mxGeometry x="-105" y="-520" width="10" height="30" as="geometry" />
        </mxCell>
        <mxCell id="UjqB-52qs5zZ1BAxD0Iv-18" value="ввод темы проекта" style="rounded=0;orthogonalLoop=1;jettySize=auto;html=1;entryX=0.006;entryY=0.88;entryDx=0;entryDy=0;entryPerimeter=0;exitX=0.933;exitY=0.073;exitDx=0;exitDy=0;exitPerimeter=0;" parent="1" source="UjqB-52qs5zZ1BAxD0Iv-13" edge="1">
          <mxGeometry x="0.0025" y="10" relative="1" as="geometry">
            <mxPoint x="-690" y="-816" as="sourcePoint" />
            <mxPoint x="-455" y="-816" as="targetPoint" />
            <mxPoint as="offset" />
          </mxGeometry>
        </mxCell>
        <mxCell id="UjqB-52qs5zZ1BAxD0Iv-19" value="добавление файла описания проекта" style="rounded=0;orthogonalLoop=1;jettySize=auto;html=1;entryX=0.006;entryY=0.88;entryDx=0;entryDy=0;entryPerimeter=0;exitX=1.1;exitY=0.125;exitDx=0;exitDy=0;exitPerimeter=0;" parent="1" source="UjqB-52qs5zZ1BAxD0Iv-13" edge="1">
          <mxGeometry x="0.0025" y="10" relative="1" as="geometry">
            <mxPoint x="-690" y="-790" as="sourcePoint" />
            <mxPoint x="-455" y="-790" as="targetPoint" />
            <mxPoint as="offset" />
          </mxGeometry>
        </mxCell>
        <mxCell id="UjqB-52qs5zZ1BAxD0Iv-25" value="добавление сотрудников организации" style="rounded=0;orthogonalLoop=1;jettySize=auto;html=1;entryX=0.006;entryY=0.88;entryDx=0;entryDy=0;entryPerimeter=0;exitX=1.02;exitY=0.252;exitDx=0;exitDy=0;exitPerimeter=0;" parent="1" source="UjqB-52qs5zZ1BAxD0Iv-13" edge="1">
          <mxGeometry y="10" relative="1" as="geometry">
            <mxPoint x="-690" y="-730" as="sourcePoint" />
            <mxPoint x="-455" y="-730.4200000000001" as="targetPoint" />
            <mxPoint as="offset" />
          </mxGeometry>
        </mxCell>
        <mxCell id="UjqB-52qs5zZ1BAxD0Iv-24" value="выбор предметной области" style="rounded=0;orthogonalLoop=1;jettySize=auto;html=1;entryX=0.006;entryY=0.88;entryDx=0;entryDy=0;entryPerimeter=0;exitX=1.1;exitY=0.19;exitDx=0;exitDy=0;exitPerimeter=0;" parent="1" source="UjqB-52qs5zZ1BAxD0Iv-13" edge="1">
          <mxGeometry x="0.0025" y="10" relative="1" as="geometry">
            <mxPoint x="-690" y="-760" as="sourcePoint" />
            <mxPoint x="-455" y="-760" as="targetPoint" />
            <mxPoint as="offset" />
          </mxGeometry>
        </mxCell>
        <mxCell id="UjqB-52qs5zZ1BAxD0Iv-31" style="edgeStyle=orthogonalEdgeStyle;rounded=0;orthogonalLoop=1;jettySize=auto;html=1;entryX=0.04;entryY=0.007;entryDx=0;entryDy=0;entryPerimeter=0;" parent="1" source="UjqB-52qs5zZ1BAxD0Iv-4" target="UjqB-52qs5zZ1BAxD0Iv-8" edge="1">
          <mxGeometry relative="1" as="geometry">
            <mxPoint x="-370" y="-600" as="targetPoint" />
            <Array as="points">
              <mxPoint x="-350" y="-580" />
              <mxPoint x="-350" y="-580" />
            </Array>
          </mxGeometry>
        </mxCell>
        <mxCell id="UjqB-52qs5zZ1BAxD0Iv-32" value="&lt;div&gt;CheckOrgMembers(orgMembers[])&lt;/div&gt;" style="edgeLabel;html=1;align=center;verticalAlign=middle;resizable=0;points=[];" parent="UjqB-52qs5zZ1BAxD0Iv-31" vertex="1" connectable="0">
          <mxGeometry x="0.1737" relative="1" as="geometry">
            <mxPoint x="-15" y="-11" as="offset" />
          </mxGeometry>
        </mxCell>
        <mxCell id="UjqB-52qs5zZ1BAxD0Iv-4" value="" style="html=1;points=[];perimeter=orthogonalPerimeter;rounded=0;shadow=0;comic=0;labelBackgroundColor=none;strokeWidth=1;fontFamily=Verdana;fontSize=12;align=center;" parent="1" vertex="1">
          <mxGeometry x="-455" y="-840" width="10" height="430" as="geometry" />
        </mxCell>
        <mxCell id="UjqB-52qs5zZ1BAxD0Iv-27" value="ввод сроков выполнения проекта" style="rounded=0;orthogonalLoop=1;jettySize=auto;html=1;entryX=0.006;entryY=0.88;entryDx=0;entryDy=0;entryPerimeter=0;exitX=1.02;exitY=0.317;exitDx=0;exitDy=0;exitPerimeter=0;" parent="1" source="UjqB-52qs5zZ1BAxD0Iv-13" edge="1">
          <mxGeometry y="10" relative="1" as="geometry">
            <mxPoint x="-690" y="-700" as="sourcePoint" />
            <mxPoint x="-455" y="-700" as="targetPoint" />
            <mxPoint as="offset" />
          </mxGeometry>
        </mxCell>
        <mxCell id="UjqB-52qs5zZ1BAxD0Iv-28" value="ввод запрашиваемой суммы финансирования" style="rounded=0;orthogonalLoop=1;jettySize=auto;html=1;entryX=0.006;entryY=0.88;entryDx=0;entryDy=0;entryPerimeter=0;exitX=1;exitY=0.383;exitDx=0;exitDy=0;exitPerimeter=0;" parent="1" source="UjqB-52qs5zZ1BAxD0Iv-13" edge="1">
          <mxGeometry y="10" relative="1" as="geometry">
            <mxPoint x="-690" y="-670" as="sourcePoint" />
            <mxPoint x="-455" y="-670" as="targetPoint" />
            <mxPoint as="offset" />
          </mxGeometry>
        </mxCell>
        <mxCell id="UjqB-52qs5zZ1BAxD0Iv-29" value="добавление файла со сметой расходов" style="rounded=0;orthogonalLoop=1;jettySize=auto;html=1;entryX=0.006;entryY=0.88;entryDx=0;entryDy=0;entryPerimeter=0;exitX=1;exitY=0.447;exitDx=0;exitDy=0;exitPerimeter=0;" parent="1" source="UjqB-52qs5zZ1BAxD0Iv-13" edge="1">
          <mxGeometry y="10" relative="1" as="geometry">
            <mxPoint x="-690" y="-641" as="sourcePoint" />
            <mxPoint x="-455" y="-640" as="targetPoint" />
            <mxPoint as="offset" />
          </mxGeometry>
        </mxCell>
        <mxCell id="UjqB-52qs5zZ1BAxD0Iv-30" value="нажатие кнопка &quot;Подать заявку&quot;" style="rounded=0;orthogonalLoop=1;jettySize=auto;html=1;entryX=0.006;entryY=0.88;entryDx=0;entryDy=0;entryPerimeter=0;exitX=0.974;exitY=0.511;exitDx=0;exitDy=0;exitPerimeter=0;" parent="1" source="UjqB-52qs5zZ1BAxD0Iv-13" edge="1">
          <mxGeometry y="10" relative="1" as="geometry">
            <mxPoint x="-690" y="-609" as="sourcePoint" />
            <mxPoint x="-455" y="-609" as="targetPoint" />
            <mxPoint as="offset" />
          </mxGeometry>
        </mxCell>
        <mxCell id="UjqB-52qs5zZ1BAxD0Iv-33" style="rounded=0;orthogonalLoop=1;jettySize=auto;html=1;dashed=1;exitX=-0.019;exitY=0.999;exitDx=0;exitDy=0;exitPerimeter=0;" parent="1" edge="1">
          <mxGeometry relative="1" as="geometry">
            <mxPoint x="-266.19000000000005" y="-550.03" as="sourcePoint" />
            <mxPoint x="-445" y="-550" as="targetPoint" />
          </mxGeometry>
        </mxCell>
        <mxCell id="UjqB-52qs5zZ1BAxD0Iv-34" value="return" style="edgeLabel;html=1;align=center;verticalAlign=middle;resizable=0;points=[];" parent="UjqB-52qs5zZ1BAxD0Iv-33" vertex="1" connectable="0">
          <mxGeometry x="0.1311" y="-1" relative="1" as="geometry">
            <mxPoint x="11" y="-9" as="offset" />
          </mxGeometry>
        </mxCell>
        <mxCell id="DOWoD25lylzkpD3WHDMk-1" style="rounded=0;orthogonalLoop=1;jettySize=auto;html=1;entryX=0.085;entryY=0.028;entryDx=0;entryDy=0;entryPerimeter=0;" parent="1" target="UjqB-52qs5zZ1BAxD0Iv-17" edge="1">
          <mxGeometry relative="1" as="geometry">
            <mxPoint x="-430" y="-520" as="sourcePoint" />
            <mxPoint x="-119.76999999999998" y="-520" as="targetPoint" />
            <Array as="points" />
          </mxGeometry>
        </mxCell>
        <mxCell id="DOWoD25lylzkpD3WHDMk-2" value="[true] CheckApplicationInfo(info[])" style="edgeLabel;html=1;align=center;verticalAlign=middle;resizable=0;points=[];" parent="DOWoD25lylzkpD3WHDMk-1" vertex="1" connectable="0">
          <mxGeometry x="-0.3234" relative="1" as="geometry">
            <mxPoint x="-20" y="-10" as="offset" />
          </mxGeometry>
        </mxCell>
        <mxCell id="DOWoD25lylzkpD3WHDMk-3" value="&lt;div&gt;[false] ShowErrorMessage(&lt;/div&gt;&lt;div&gt;&quot;Заполните информацию об организации&quot;)&lt;/div&gt;" style="rounded=0;orthogonalLoop=1;jettySize=auto;html=1;dashed=1;entryX=1.033;entryY=0.7;entryDx=0;entryDy=0;entryPerimeter=0;" parent="1" target="UjqB-52qs5zZ1BAxD0Iv-13" edge="1">
          <mxGeometry x="0.0163" y="-20" relative="1" as="geometry">
            <mxPoint x="-470" y="-520" as="sourcePoint" />
            <mxPoint x="-690" y="-520" as="targetPoint" />
            <mxPoint as="offset" />
          </mxGeometry>
        </mxCell>
        <mxCell id="DOWoD25lylzkpD3WHDMk-5" style="rounded=0;orthogonalLoop=1;jettySize=auto;html=1;entryX=1.452;entryY=0.906;entryDx=0;entryDy=0;entryPerimeter=0;dashed=1;" parent="1" edge="1">
          <mxGeometry relative="1" as="geometry">
            <mxPoint x="-109.51999999999998" y="-490.61" as="sourcePoint" />
            <mxPoint x="-445" y="-490.61" as="targetPoint" />
          </mxGeometry>
        </mxCell>
        <mxCell id="DOWoD25lylzkpD3WHDMk-6" value="return" style="edgeLabel;html=1;align=center;verticalAlign=middle;resizable=0;points=[];" parent="DOWoD25lylzkpD3WHDMk-5" vertex="1" connectable="0">
          <mxGeometry x="-0.1629" y="-1" relative="1" as="geometry">
            <mxPoint x="-1" y="-8" as="offset" />
          </mxGeometry>
        </mxCell>
        <mxCell id="DOWoD25lylzkpD3WHDMk-7" value="&lt;div&gt;[false] ShowErrorMessage(&lt;/div&gt;&lt;div&gt;&quot;Заполните все поля заявки&quot;)&lt;/div&gt;" style="rounded=0;orthogonalLoop=1;jettySize=auto;html=1;entryX=1.176;entryY=0.968;entryDx=0;entryDy=0;entryPerimeter=0;dashed=1;" parent="1" edge="1">
          <mxGeometry x="0.0163" y="-20" relative="1" as="geometry">
            <mxPoint x="-470" y="-460" as="sourcePoint" />
            <mxPoint x="-699" y="-460" as="targetPoint" />
            <mxPoint as="offset" />
          </mxGeometry>
        </mxCell>
        <mxCell id="DOWoD25lylzkpD3WHDMk-10" value=":Форма заявок" style="shape=umlLifeline;perimeter=lifelinePerimeter;whiteSpace=wrap;html=1;container=0;collapsible=0;recursiveResize=0;outlineConnect=0;rounded=1;shadow=0;comic=0;labelBackgroundColor=none;strokeWidth=1;fontFamily=Verdana;fontSize=12;align=center;" parent="1" vertex="1">
          <mxGeometry x="-10" y="-940" width="140" height="600" as="geometry" />
        </mxCell>
        <mxCell id="WfiCJRezlwqFXNxfQphz-2" style="edgeStyle=orthogonalEdgeStyle;rounded=0;orthogonalLoop=1;jettySize=auto;html=1;" parent="1" source="WfiCJRezlwqFXNxfQphz-1" edge="1">
          <mxGeometry relative="1" as="geometry">
            <mxPoint x="-700" y="-380" as="targetPoint" />
            <Array as="points">
              <mxPoint x="-322" y="-380" />
              <mxPoint x="-700" y="-379" />
            </Array>
          </mxGeometry>
        </mxCell>
        <mxCell id="WfiCJRezlwqFXNxfQphz-3" value="LoadForm()" style="edgeLabel;html=1;align=center;verticalAlign=middle;resizable=0;points=[];" parent="WfiCJRezlwqFXNxfQphz-2" vertex="1" connectable="0">
          <mxGeometry x="0.0168" y="-2" relative="1" as="geometry">
            <mxPoint x="29" y="-8" as="offset" />
          </mxGeometry>
        </mxCell>
        <mxCell id="WfiCJRezlwqFXNxfQphz-1" value="" style="html=1;points=[];perimeter=orthogonalPerimeter;rounded=0;shadow=0;comic=0;labelBackgroundColor=none;strokeWidth=1;fontFamily=Verdana;fontSize=12;align=center;" parent="1" vertex="1">
          <mxGeometry x="55" y="-460" width="10" height="80" as="geometry" />
        </mxCell>
        <mxCell id="B6wEJz89TrZgWdzGVF0U-1" value="Подача заявки" style="shape=note;size=20;whiteSpace=wrap;html=1;" parent="1" vertex="1">
          <mxGeometry x="-770" y="-1060" width="130" height="50" as="geometry" />
        </mxCell>
        <mxCell id="lPHofbo54SyMa1WkI_QH-1" value="" style="endArrow=none;html=1;rounded=0;" parent="1" edge="1">
          <mxGeometry width="50" height="50" relative="1" as="geometry">
            <mxPoint x="-470" y="-520" as="sourcePoint" />
            <mxPoint x="-430" y="-520" as="targetPoint" />
            <Array as="points">
              <mxPoint x="-445" y="-530" />
            </Array>
          </mxGeometry>
        </mxCell>
        <mxCell id="lPHofbo54SyMa1WkI_QH-2" value="" style="endArrow=none;html=1;rounded=0;" parent="1" edge="1">
          <mxGeometry width="50" height="50" relative="1" as="geometry">
            <mxPoint x="-470" y="-460" as="sourcePoint" />
            <mxPoint x="-430" y="-460" as="targetPoint" />
            <Array as="points">
              <mxPoint x="-445" y="-470" />
            </Array>
          </mxGeometry>
        </mxCell>
      </root>
    </mxGraphModel>
  </diagram>
  <diagram id="wks_NFR7uljwIr2i5kWM" name="создание организации">
    <mxGraphModel dx="4064" dy="2702" grid="1" gridSize="10" guides="1" tooltips="1" connect="1" arrows="1" fold="1" page="1" pageScale="1" pageWidth="827" pageHeight="1169" math="0" shadow="0">
      <root>
        <mxCell id="0" />
        <mxCell id="1" parent="0" />
        <mxCell id="FJ7U01oGOBUut89LWSuu-1" value=":Форма организации" style="shape=umlLifeline;perimeter=lifelinePerimeter;whiteSpace=wrap;html=1;container=0;collapsible=0;recursiveResize=0;outlineConnect=0;rounded=1;shadow=0;comic=0;labelBackgroundColor=none;strokeWidth=1;fontFamily=Verdana;fontSize=12;align=center;" parent="1" vertex="1">
          <mxGeometry x="-534" y="-610" width="140" height="480" as="geometry" />
        </mxCell>
        <mxCell id="FJ7U01oGOBUut89LWSuu-2" value=":Participant" style="shape=umlLifeline;perimeter=lifelinePerimeter;whiteSpace=wrap;html=1;container=1;collapsible=0;recursiveResize=0;outlineConnect=0;rounded=1;shadow=0;comic=0;labelBackgroundColor=none;strokeWidth=1;fontFamily=Verdana;fontSize=12;align=center;" parent="1" vertex="1">
          <mxGeometry x="-340" y="-610" width="140" height="480" as="geometry" />
        </mxCell>
        <mxCell id="FJ7U01oGOBUut89LWSuu-3" value="" style="html=1;points=[];perimeter=orthogonalPerimeter;rounded=0;shadow=0;comic=0;labelBackgroundColor=none;strokeWidth=1;fontFamily=Verdana;fontSize=12;align=center;" parent="FJ7U01oGOBUut89LWSuu-2" vertex="1">
          <mxGeometry x="65" y="270" width="10" height="30" as="geometry" />
        </mxCell>
        <mxCell id="FJ7U01oGOBUut89LWSuu-6" style="rounded=0;orthogonalLoop=1;jettySize=auto;html=1;endArrow=none;endFill=0;dashed=1;" parent="1" edge="1">
          <mxGeometry relative="1" as="geometry">
            <mxPoint x="-719" y="-130" as="targetPoint" />
            <mxPoint x="-719" y="-550" as="sourcePoint" />
          </mxGeometry>
        </mxCell>
        <mxCell id="FJ7U01oGOBUut89LWSuu-7" value="Исследователь" style="shape=umlActor;verticalLabelPosition=bottom;verticalAlign=top;html=1;outlineConnect=0;" parent="1" vertex="1">
          <mxGeometry x="-734" y="-640" width="30" height="60" as="geometry" />
        </mxCell>
        <mxCell id="FJ7U01oGOBUut89LWSuu-8" value="ввод названия организации" style="rounded=0;orthogonalLoop=1;jettySize=auto;html=1;entryX=0.006;entryY=0.88;entryDx=0;entryDy=0;entryPerimeter=0;exitX=0.906;exitY=0.027;exitDx=0;exitDy=0;exitPerimeter=0;" parent="1" source="FJ7U01oGOBUut89LWSuu-9" edge="1">
          <mxGeometry x="0.0025" y="10" relative="1" as="geometry">
            <mxPoint x="-704" y="-510" as="sourcePoint" />
            <mxPoint x="-468.94000000000017" y="-510" as="targetPoint" />
            <mxPoint as="offset" />
          </mxGeometry>
        </mxCell>
        <mxCell id="FJ7U01oGOBUut89LWSuu-9" value="" style="html=1;points=[];perimeter=orthogonalPerimeter;rounded=0;shadow=0;comic=0;labelBackgroundColor=none;strokeWidth=1;fontFamily=Verdana;fontSize=12;align=center;" parent="1" vertex="1">
          <mxGeometry x="-724" y="-520" width="10" height="360" as="geometry" />
        </mxCell>
        <mxCell id="FJ7U01oGOBUut89LWSuu-10" value=":Organization" style="shape=umlLifeline;perimeter=lifelinePerimeter;whiteSpace=wrap;html=1;container=0;collapsible=0;recursiveResize=0;outlineConnect=0;rounded=1;shadow=0;comic=0;labelBackgroundColor=none;strokeWidth=1;fontFamily=Verdana;fontSize=12;align=center;" parent="1" vertex="1">
          <mxGeometry x="-184" y="-610" width="140" height="480" as="geometry" />
        </mxCell>
        <mxCell id="FJ7U01oGOBUut89LWSuu-11" value="" style="html=1;points=[];perimeter=orthogonalPerimeter;rounded=0;shadow=0;comic=0;labelBackgroundColor=none;strokeWidth=1;fontFamily=Verdana;fontSize=12;align=center;" parent="1" vertex="1">
          <mxGeometry x="-120.08000000000004" y="-279.7" width="10" height="30" as="geometry" />
        </mxCell>
        <mxCell id="FJ7U01oGOBUut89LWSuu-12" value="добавление сотрудников организации" style="rounded=0;orthogonalLoop=1;jettySize=auto;html=1;entryX=0.006;entryY=0.88;entryDx=0;entryDy=0;entryPerimeter=0;exitX=0.989;exitY=0.092;exitDx=0;exitDy=0;exitPerimeter=0;" parent="1" source="FJ7U01oGOBUut89LWSuu-9" edge="1">
          <mxGeometry x="0.0025" y="10" relative="1" as="geometry">
            <mxPoint x="-704" y="-490" as="sourcePoint" />
            <mxPoint x="-469" y="-486" as="targetPoint" />
            <mxPoint as="offset" />
          </mxGeometry>
        </mxCell>
        <mxCell id="FJ7U01oGOBUut89LWSuu-13" value="Ввод информации об участниках организации" style="rounded=0;orthogonalLoop=1;jettySize=auto;html=1;entryX=0.006;entryY=0.88;entryDx=0;entryDy=0;entryPerimeter=0;exitX=1.072;exitY=0.163;exitDx=0;exitDy=0;exitPerimeter=0;" parent="1" source="FJ7U01oGOBUut89LWSuu-9" edge="1">
          <mxGeometry x="0.0025" y="10" relative="1" as="geometry">
            <mxPoint x="-704" y="-460" as="sourcePoint" />
            <mxPoint x="-469" y="-460" as="targetPoint" />
            <mxPoint as="offset" />
          </mxGeometry>
        </mxCell>
        <mxCell id="FJ7U01oGOBUut89LWSuu-14" value="&lt;div&gt;добавление файла с&amp;nbsp;&lt;/div&gt;&lt;div&gt;информацией об организации&lt;/div&gt;" style="rounded=0;orthogonalLoop=1;jettySize=auto;html=1;exitX=0.867;exitY=0.233;exitDx=0;exitDy=0;exitPerimeter=0;entryX=-0.112;entryY=0.371;entryDx=0;entryDy=0;entryPerimeter=0;" parent="1" target="FJ7U01oGOBUut89LWSuu-18" edge="1">
          <mxGeometry x="0.0619" y="19" relative="1" as="geometry">
            <mxPoint x="-713.9999999999999" y="-379.99999999999994" as="sourcePoint" />
            <mxPoint x="-467.67" y="-377.6" as="targetPoint" />
            <mxPoint as="offset" />
          </mxGeometry>
        </mxCell>
        <mxCell id="FJ7U01oGOBUut89LWSuu-15" value="&lt;div&gt;добавление файлов с&amp;nbsp;&lt;/div&gt;&lt;div&gt;прежней научной деятельностью участников&lt;/div&gt;" style="rounded=0;orthogonalLoop=1;jettySize=auto;html=1;exitX=1.048;exitY=0.17;exitDx=0;exitDy=0;exitPerimeter=0;entryX=-0.119;entryY=0.258;entryDx=0;entryDy=0;entryPerimeter=0;" parent="1" target="FJ7U01oGOBUut89LWSuu-18" edge="1">
          <mxGeometry x="-0.0159" y="20" relative="1" as="geometry">
            <mxPoint x="-714.52" y="-419.8" as="sourcePoint" />
            <mxPoint x="-470" y="-418" as="targetPoint" />
            <mxPoint as="offset" />
          </mxGeometry>
        </mxCell>
        <mxCell id="FJ7U01oGOBUut89LWSuu-16" style="edgeStyle=orthogonalEdgeStyle;rounded=0;orthogonalLoop=1;jettySize=auto;html=1;entryX=0.04;entryY=0.007;entryDx=0;entryDy=0;entryPerimeter=0;" parent="1" source="FJ7U01oGOBUut89LWSuu-18" target="FJ7U01oGOBUut89LWSuu-3" edge="1">
          <mxGeometry relative="1" as="geometry">
            <mxPoint x="-384" y="-270" as="targetPoint" />
            <Array as="points">
              <mxPoint x="-275" y="-340" />
            </Array>
          </mxGeometry>
        </mxCell>
        <mxCell id="FJ7U01oGOBUut89LWSuu-17" value="&lt;div&gt;CheckParticipants(participants[])&lt;/div&gt;" style="edgeLabel;html=1;align=center;verticalAlign=middle;resizable=0;points=[];" parent="FJ7U01oGOBUut89LWSuu-16" vertex="1" connectable="0">
          <mxGeometry x="0.1737" relative="1" as="geometry">
            <mxPoint x="-15" y="-11" as="offset" />
          </mxGeometry>
        </mxCell>
        <mxCell id="FJ7U01oGOBUut89LWSuu-18" value="" style="html=1;points=[];perimeter=orthogonalPerimeter;rounded=0;shadow=0;comic=0;labelBackgroundColor=none;strokeWidth=1;fontFamily=Verdana;fontSize=12;align=center;" parent="1" vertex="1">
          <mxGeometry x="-469" y="-510" width="10" height="350" as="geometry" />
        </mxCell>
        <mxCell id="FJ7U01oGOBUut89LWSuu-23" style="rounded=0;orthogonalLoop=1;jettySize=auto;html=1;dashed=1;exitX=-0.019;exitY=0.999;exitDx=0;exitDy=0;exitPerimeter=0;" parent="1" edge="1">
          <mxGeometry relative="1" as="geometry">
            <mxPoint x="-280.19000000000005" y="-310.53000000000003" as="sourcePoint" />
            <mxPoint x="-459" y="-310.5" as="targetPoint" />
          </mxGeometry>
        </mxCell>
        <mxCell id="FJ7U01oGOBUut89LWSuu-24" value="return" style="edgeLabel;html=1;align=center;verticalAlign=middle;resizable=0;points=[];" parent="FJ7U01oGOBUut89LWSuu-23" vertex="1" connectable="0">
          <mxGeometry x="0.1311" y="-1" relative="1" as="geometry">
            <mxPoint x="11" y="-9" as="offset" />
          </mxGeometry>
        </mxCell>
        <mxCell id="FJ7U01oGOBUut89LWSuu-25" style="rounded=0;orthogonalLoop=1;jettySize=auto;html=1;entryX=0.085;entryY=0.028;entryDx=0;entryDy=0;entryPerimeter=0;" parent="1" target="FJ7U01oGOBUut89LWSuu-11" edge="1">
          <mxGeometry relative="1" as="geometry">
            <mxPoint x="-444" y="-280" as="sourcePoint" />
            <mxPoint x="-134.85000000000002" y="-279.7" as="targetPoint" />
            <Array as="points" />
          </mxGeometry>
        </mxCell>
        <mxCell id="FJ7U01oGOBUut89LWSuu-26" value="[true] CheckOrgInfo(info[])" style="edgeLabel;html=1;align=center;verticalAlign=middle;resizable=0;points=[];" parent="FJ7U01oGOBUut89LWSuu-25" vertex="1" connectable="0">
          <mxGeometry x="-0.3234" relative="1" as="geometry">
            <mxPoint x="-20" y="-10" as="offset" />
          </mxGeometry>
        </mxCell>
        <mxCell id="FJ7U01oGOBUut89LWSuu-27" value="&lt;div&gt;[false] ShowErrorMessage(&lt;/div&gt;&lt;div&gt;&quot;Заполните информацию&amp;nbsp;&lt;/div&gt;&lt;div&gt;об участниках организации&quot;)&lt;/div&gt;" style="rounded=0;orthogonalLoop=1;jettySize=auto;html=1;dashed=1;entryX=1.108;entryY=0.695;entryDx=0;entryDy=0;entryPerimeter=0;" parent="1" edge="1">
          <mxGeometry x="0.0134" y="-30" relative="1" as="geometry">
            <mxPoint x="-484" y="-280" as="sourcePoint" />
            <mxPoint x="-713.9999999999999" y="-279.99999999999994" as="targetPoint" />
            <mxPoint as="offset" />
          </mxGeometry>
        </mxCell>
        <mxCell id="FJ7U01oGOBUut89LWSuu-28" style="rounded=0;orthogonalLoop=1;jettySize=auto;html=1;entryX=1.452;entryY=0.906;entryDx=0;entryDy=0;entryPerimeter=0;dashed=1;" parent="1" edge="1">
          <mxGeometry relative="1" as="geometry">
            <mxPoint x="-124.51999999999998" y="-249.70000000000005" as="sourcePoint" />
            <mxPoint x="-460" y="-249.70000000000005" as="targetPoint" />
          </mxGeometry>
        </mxCell>
        <mxCell id="FJ7U01oGOBUut89LWSuu-29" value="return" style="edgeLabel;html=1;align=center;verticalAlign=middle;resizable=0;points=[];" parent="FJ7U01oGOBUut89LWSuu-28" vertex="1" connectable="0">
          <mxGeometry x="-0.1629" y="-1" relative="1" as="geometry">
            <mxPoint x="-1" y="-8" as="offset" />
          </mxGeometry>
        </mxCell>
        <mxCell id="FJ7U01oGOBUut89LWSuu-30" value="&lt;div&gt;[false] ShowErrorMessage(&lt;/div&gt;&lt;div&gt;&quot;Заполните все поля&quot;)&lt;/div&gt;" style="rounded=0;orthogonalLoop=1;jettySize=auto;html=1;entryX=1.176;entryY=0.968;entryDx=0;entryDy=0;entryPerimeter=0;dashed=1;" parent="1" edge="1">
          <mxGeometry x="0.0163" y="-20" relative="1" as="geometry">
            <mxPoint x="-484" y="-220" as="sourcePoint" />
            <mxPoint x="-714" y="-219.09000000000003" as="targetPoint" />
            <mxPoint as="offset" />
          </mxGeometry>
        </mxCell>
        <mxCell id="FJ7U01oGOBUut89LWSuu-4" style="rounded=0;orthogonalLoop=1;jettySize=auto;html=1;edgeStyle=orthogonalEdgeStyle;" parent="1" edge="1">
          <mxGeometry relative="1" as="geometry">
            <mxPoint x="-444" y="-220" as="sourcePoint" />
            <mxPoint x="-458" y="-190" as="targetPoint" />
            <Array as="points">
              <mxPoint x="-404" y="-220" />
              <mxPoint x="-404" y="-190" />
              <mxPoint x="-457" y="-190" />
            </Array>
          </mxGeometry>
        </mxCell>
        <mxCell id="FJ7U01oGOBUut89LWSuu-5" value="[true] SaveOrgInfo(info[])" style="edgeLabel;html=1;align=center;verticalAlign=middle;resizable=0;points=[];" parent="FJ7U01oGOBUut89LWSuu-4" vertex="1" connectable="0">
          <mxGeometry x="-0.3234" relative="1" as="geometry">
            <mxPoint x="72" y="13" as="offset" />
          </mxGeometry>
        </mxCell>
        <mxCell id="lyy0b8eigRZuFbG_3Vyh-1" value="Заполнение информации об организации" style="shape=note;size=20;whiteSpace=wrap;html=1;" parent="1" vertex="1">
          <mxGeometry x="-784" y="-710" width="130" height="50" as="geometry" />
        </mxCell>
        <mxCell id="RwP55eguu9TrtL_9ASti-1" value="" style="endArrow=none;html=1;rounded=0;" parent="1" edge="1">
          <mxGeometry width="50" height="50" relative="1" as="geometry">
            <mxPoint x="-484" y="-279.7" as="sourcePoint" />
            <mxPoint x="-444" y="-279.7" as="targetPoint" />
            <Array as="points">
              <mxPoint x="-459" y="-289.7" />
            </Array>
          </mxGeometry>
        </mxCell>
        <mxCell id="RwP55eguu9TrtL_9ASti-2" value="" style="endArrow=none;html=1;rounded=0;" parent="1" edge="1">
          <mxGeometry width="50" height="50" relative="1" as="geometry">
            <mxPoint x="-484" y="-220" as="sourcePoint" />
            <mxPoint x="-444" y="-220" as="targetPoint" />
            <Array as="points">
              <mxPoint x="-459" y="-230" />
            </Array>
          </mxGeometry>
        </mxCell>
      </root>
    </mxGraphModel>
  </diagram>
  <diagram id="8joeKEbCNebWgInhDzO-" name="Рассчет рейтинга">
    <mxGraphModel dx="1494" dy="760" grid="1" gridSize="10" guides="1" tooltips="1" connect="1" arrows="1" fold="1" page="1" pageScale="1" pageWidth="1654" pageHeight="1169" math="0" shadow="0">
      <root>
        <mxCell id="0" />
        <mxCell id="1" parent="0" />
        <mxCell id="Xnl6LlCrgO-XExTTDPLY-1" value=":Staff" style="shape=umlLifeline;perimeter=lifelinePerimeter;whiteSpace=wrap;html=1;container=1;collapsible=0;recursiveResize=0;outlineConnect=0;rounded=1;shadow=0;comic=0;labelBackgroundColor=none;strokeWidth=1;fontFamily=Verdana;fontSize=12;align=center;" parent="1" vertex="1">
          <mxGeometry x="30" y="50" width="100" height="420" as="geometry" />
        </mxCell>
        <mxCell id="Xnl6LlCrgO-XExTTDPLY-2" value="" style="html=1;points=[];perimeter=orthogonalPerimeter;rounded=0;shadow=0;comic=0;labelBackgroundColor=none;strokeWidth=1;fontFamily=Verdana;fontSize=12;align=center;" parent="Xnl6LlCrgO-XExTTDPLY-1" vertex="1">
          <mxGeometry x="45" y="100" width="10" height="320" as="geometry" />
        </mxCell>
        <mxCell id="Xnl6LlCrgO-XExTTDPLY-38" style="edgeStyle=orthogonalEdgeStyle;rounded=0;orthogonalLoop=1;jettySize=auto;html=1;entryX=0.922;entryY=0.934;entryDx=0;entryDy=0;entryPerimeter=0;exitX=1.09;exitY=0.856;exitDx=0;exitDy=0;exitPerimeter=0;" parent="Xnl6LlCrgO-XExTTDPLY-1" source="Xnl6LlCrgO-XExTTDPLY-2" target="Xnl6LlCrgO-XExTTDPLY-2" edge="1">
          <mxGeometry relative="1" as="geometry">
            <Array as="points">
              <mxPoint x="80" y="374" />
              <mxPoint x="80" y="399" />
            </Array>
          </mxGeometry>
        </mxCell>
        <mxCell id="Xnl6LlCrgO-XExTTDPLY-39" value="calculateAverage()" style="edgeLabel;html=1;align=center;verticalAlign=middle;resizable=0;points=[];" parent="Xnl6LlCrgO-XExTTDPLY-38" vertex="1" connectable="0">
          <mxGeometry x="-0.0333" y="1" relative="1" as="geometry">
            <mxPoint x="45" as="offset" />
          </mxGeometry>
        </mxCell>
        <mxCell id="Xnl6LlCrgO-XExTTDPLY-3" value=":Competition" style="shape=umlLifeline;perimeter=lifelinePerimeter;whiteSpace=wrap;html=1;container=1;collapsible=0;recursiveResize=0;outlineConnect=0;rounded=1;shadow=0;comic=0;labelBackgroundColor=none;strokeWidth=1;fontFamily=Verdana;fontSize=12;align=center;" parent="1" vertex="1">
          <mxGeometry x="190" y="50" width="100" height="380" as="geometry" />
        </mxCell>
        <mxCell id="Xnl6LlCrgO-XExTTDPLY-4" value="" style="html=1;points=[];perimeter=orthogonalPerimeter;rounded=0;shadow=0;comic=0;labelBackgroundColor=none;strokeWidth=1;fontFamily=Verdana;fontSize=12;align=center;" parent="Xnl6LlCrgO-XExTTDPLY-3" vertex="1">
          <mxGeometry x="45" y="100" width="10" height="280" as="geometry" />
        </mxCell>
        <mxCell id="Xnl6LlCrgO-XExTTDPLY-34" style="edgeStyle=orthogonalEdgeStyle;rounded=0;orthogonalLoop=1;jettySize=auto;html=1;entryX=1.087;entryY=0.808;entryDx=0;entryDy=0;entryPerimeter=0;exitX=1.019;exitY=0.722;exitDx=0;exitDy=0;exitPerimeter=0;" parent="Xnl6LlCrgO-XExTTDPLY-3" source="Xnl6LlCrgO-XExTTDPLY-4" target="Xnl6LlCrgO-XExTTDPLY-4" edge="1">
          <mxGeometry relative="1" as="geometry">
            <Array as="points">
              <mxPoint x="80" y="302" />
              <mxPoint x="80" y="326" />
              <mxPoint x="56" y="326" />
            </Array>
          </mxGeometry>
        </mxCell>
        <mxCell id="Xnl6LlCrgO-XExTTDPLY-35" value="calculateAverage()" style="edgeLabel;html=1;align=center;verticalAlign=middle;resizable=0;points=[];" parent="Xnl6LlCrgO-XExTTDPLY-34" vertex="1" connectable="0">
          <mxGeometry x="0.0197" y="-2" relative="1" as="geometry">
            <mxPoint x="49" y="-1" as="offset" />
          </mxGeometry>
        </mxCell>
        <mxCell id="Xnl6LlCrgO-XExTTDPLY-5" value=":MarkJury" style="shape=umlLifeline;perimeter=lifelinePerimeter;whiteSpace=wrap;html=1;container=1;collapsible=0;recursiveResize=0;outlineConnect=0;rounded=1;shadow=0;comic=0;labelBackgroundColor=none;strokeWidth=1;fontFamily=Verdana;fontSize=12;align=center;" parent="1" vertex="1">
          <mxGeometry x="510" y="50" width="100" height="340" as="geometry" />
        </mxCell>
        <mxCell id="Xnl6LlCrgO-XExTTDPLY-7" value=":Competition&lt;br&gt;Criterion" style="shape=umlLifeline;perimeter=lifelinePerimeter;whiteSpace=wrap;html=1;container=1;collapsible=0;recursiveResize=0;outlineConnect=0;rounded=1;shadow=0;comic=0;labelBackgroundColor=none;strokeWidth=1;fontFamily=Verdana;fontSize=12;align=center;" parent="1" vertex="1">
          <mxGeometry x="350" y="50" width="100" height="340" as="geometry" />
        </mxCell>
        <mxCell id="Xnl6LlCrgO-XExTTDPLY-9" value="" style="swimlane;startSize=0;" parent="1" vertex="1">
          <mxGeometry x="170" y="110" width="610" height="340" as="geometry">
            <mxRectangle x="170" y="110" width="50" height="40" as="alternateBounds" />
          </mxGeometry>
        </mxCell>
        <mxCell id="Xnl6LlCrgO-XExTTDPLY-14" value="" style="swimlane;startSize=0;" parent="Xnl6LlCrgO-XExTTDPLY-9" vertex="1">
          <mxGeometry x="160" y="28" width="420" height="250" as="geometry" />
        </mxCell>
        <mxCell id="Xnl6LlCrgO-XExTTDPLY-18" style="edgeStyle=orthogonalEdgeStyle;rounded=0;orthogonalLoop=1;jettySize=auto;html=1;exitX=0.94;exitY=0.371;exitDx=0;exitDy=0;exitPerimeter=0;entryX=-0.038;entryY=0.248;entryDx=0;entryDy=0;entryPerimeter=0;" parent="Xnl6LlCrgO-XExTTDPLY-14" source="Xnl6LlCrgO-XExTTDPLY-8" target="Xnl6LlCrgO-XExTTDPLY-6" edge="1">
          <mxGeometry relative="1" as="geometry" />
        </mxCell>
        <mxCell id="Xnl6LlCrgO-XExTTDPLY-19" value="getMarkJury()" style="edgeLabel;html=1;align=center;verticalAlign=middle;resizable=0;points=[];" parent="Xnl6LlCrgO-XExTTDPLY-18" vertex="1" connectable="0">
          <mxGeometry x="0.0029" relative="1" as="geometry">
            <mxPoint y="-8" as="offset" />
          </mxGeometry>
        </mxCell>
        <mxCell id="Xnl6LlCrgO-XExTTDPLY-8" value="" style="html=1;points=[];perimeter=orthogonalPerimeter;rounded=0;shadow=0;comic=0;labelBackgroundColor=none;strokeWidth=1;fontFamily=Verdana;fontSize=12;align=center;" parent="Xnl6LlCrgO-XExTTDPLY-14" vertex="1">
          <mxGeometry x="66" y="30" width="10" height="160" as="geometry" />
        </mxCell>
        <mxCell id="Xnl6LlCrgO-XExTTDPLY-22" style="edgeStyle=orthogonalEdgeStyle;rounded=0;orthogonalLoop=1;jettySize=auto;html=1;exitX=-0.148;exitY=0.792;exitDx=0;exitDy=0;exitPerimeter=0;entryX=0.972;entryY=0.644;entryDx=0;entryDy=0;entryPerimeter=0;" parent="Xnl6LlCrgO-XExTTDPLY-14" source="Xnl6LlCrgO-XExTTDPLY-6" target="Xnl6LlCrgO-XExTTDPLY-8" edge="1">
          <mxGeometry relative="1" as="geometry">
            <mxPoint x="80" y="132" as="targetPoint" />
          </mxGeometry>
        </mxCell>
        <mxCell id="Xnl6LlCrgO-XExTTDPLY-23" value="return int MarkJury" style="edgeLabel;html=1;align=center;verticalAlign=middle;resizable=0;points=[];" parent="Xnl6LlCrgO-XExTTDPLY-22" vertex="1" connectable="0">
          <mxGeometry x="0.2266" relative="1" as="geometry">
            <mxPoint x="12" y="-9" as="offset" />
          </mxGeometry>
        </mxCell>
        <mxCell id="Xnl6LlCrgO-XExTTDPLY-6" value="" style="html=1;points=[];perimeter=orthogonalPerimeter;rounded=0;shadow=0;comic=0;labelBackgroundColor=none;strokeWidth=1;fontFamily=Verdana;fontSize=12;align=center;" parent="Xnl6LlCrgO-XExTTDPLY-14" vertex="1">
          <mxGeometry x="225" y="70" width="10" height="80" as="geometry" />
        </mxCell>
        <mxCell id="Xnl6LlCrgO-XExTTDPLY-24" style="edgeStyle=orthogonalEdgeStyle;rounded=0;orthogonalLoop=1;jettySize=auto;html=1;entryX=1.057;entryY=0.917;entryDx=0;entryDy=0;entryPerimeter=0;exitX=0.943;exitY=0.767;exitDx=0;exitDy=0;exitPerimeter=0;" parent="Xnl6LlCrgO-XExTTDPLY-14" source="Xnl6LlCrgO-XExTTDPLY-8" target="Xnl6LlCrgO-XExTTDPLY-8" edge="1">
          <mxGeometry relative="1" as="geometry">
            <Array as="points">
              <mxPoint x="100" y="153" />
              <mxPoint x="100" y="177" />
            </Array>
          </mxGeometry>
        </mxCell>
        <mxCell id="Xnl6LlCrgO-XExTTDPLY-25" value="calculateAverage()" style="edgeLabel;html=1;align=center;verticalAlign=middle;resizable=0;points=[];" parent="Xnl6LlCrgO-XExTTDPLY-24" vertex="1" connectable="0">
          <mxGeometry x="0.0144" y="-1" relative="1" as="geometry">
            <mxPoint x="49" y="-1" as="offset" />
          </mxGeometry>
        </mxCell>
        <mxCell id="Xnl6LlCrgO-XExTTDPLY-17" value="loop [each CompetitionCriterion]" style="text;html=1;align=center;verticalAlign=middle;resizable=0;points=[];autosize=1;strokeColor=none;fillColor=none;" parent="Xnl6LlCrgO-XExTTDPLY-14" vertex="1">
          <mxGeometry width="190" height="30" as="geometry" />
        </mxCell>
        <mxCell id="9tQRTHgKTIYDB1IesyRW-1" value="" style="swimlane;startSize=0;" parent="Xnl6LlCrgO-XExTTDPLY-14" vertex="1">
          <mxGeometry x="200" y="30" width="190" height="150" as="geometry" />
        </mxCell>
        <mxCell id="9tQRTHgKTIYDB1IesyRW-2" value="loop [each MarkJury]" style="text;html=1;align=center;verticalAlign=middle;resizable=0;points=[];autosize=1;strokeColor=none;fillColor=none;" parent="9tQRTHgKTIYDB1IesyRW-1" vertex="1">
          <mxGeometry width="130" height="30" as="geometry" />
        </mxCell>
        <mxCell id="Xnl6LlCrgO-XExTTDPLY-44" value="loop [each Competition]" style="text;html=1;align=center;verticalAlign=middle;resizable=0;points=[];autosize=1;strokeColor=none;fillColor=none;" parent="Xnl6LlCrgO-XExTTDPLY-9" vertex="1">
          <mxGeometry x="20" y="-2" width="150" height="30" as="geometry" />
        </mxCell>
        <mxCell id="Xnl6LlCrgO-XExTTDPLY-12" style="edgeStyle=orthogonalEdgeStyle;rounded=0;orthogonalLoop=1;jettySize=auto;html=1;exitX=1.193;exitY=0.048;exitDx=0;exitDy=0;exitPerimeter=0;entryX=0.067;entryY=0.054;entryDx=0;entryDy=0;entryPerimeter=0;" parent="1" source="Xnl6LlCrgO-XExTTDPLY-2" target="Xnl6LlCrgO-XExTTDPLY-4" edge="1">
          <mxGeometry relative="1" as="geometry">
            <mxPoint x="230" y="165" as="targetPoint" />
          </mxGeometry>
        </mxCell>
        <mxCell id="Xnl6LlCrgO-XExTTDPLY-46" value="getRating()" style="edgeLabel;html=1;align=center;verticalAlign=middle;resizable=0;points=[];" parent="Xnl6LlCrgO-XExTTDPLY-12" vertex="1" connectable="0">
          <mxGeometry x="-0.1089" y="-1" relative="1" as="geometry">
            <mxPoint x="2" y="-9" as="offset" />
          </mxGeometry>
        </mxCell>
        <mxCell id="Xnl6LlCrgO-XExTTDPLY-15" style="edgeStyle=orthogonalEdgeStyle;rounded=0;orthogonalLoop=1;jettySize=auto;html=1;entryX=-0.1;entryY=0.166;entryDx=0;entryDy=0;entryPerimeter=0;exitX=0.929;exitY=0.161;exitDx=0;exitDy=0;exitPerimeter=0;" parent="1" source="Xnl6LlCrgO-XExTTDPLY-4" target="Xnl6LlCrgO-XExTTDPLY-8" edge="1">
          <mxGeometry relative="1" as="geometry">
            <mxPoint x="260" y="230" as="sourcePoint" />
            <mxPoint x="428" y="217.89999999999998" as="targetPoint" />
          </mxGeometry>
        </mxCell>
        <mxCell id="Xnl6LlCrgO-XExTTDPLY-16" value="getAverageMark&lt;br&gt;ByCompetition()" style="edgeLabel;html=1;align=center;verticalAlign=middle;resizable=0;points=[];" parent="Xnl6LlCrgO-XExTTDPLY-15" vertex="1" connectable="0">
          <mxGeometry x="-0.3788" relative="1" as="geometry">
            <mxPoint x="29" y="-17" as="offset" />
          </mxGeometry>
        </mxCell>
        <mxCell id="Xnl6LlCrgO-XExTTDPLY-32" style="edgeStyle=orthogonalEdgeStyle;rounded=0;orthogonalLoop=1;jettySize=auto;html=1;entryX=1.025;entryY=0.615;entryDx=0;entryDy=0;entryPerimeter=0;exitX=-0.159;exitY=0.962;exitDx=0;exitDy=0;exitPerimeter=0;" parent="1" source="Xnl6LlCrgO-XExTTDPLY-8" target="Xnl6LlCrgO-XExTTDPLY-4" edge="1">
          <mxGeometry relative="1" as="geometry" />
        </mxCell>
        <mxCell id="Xnl6LlCrgO-XExTTDPLY-33" value="return float averageByCriterion" style="edgeLabel;html=1;align=center;verticalAlign=middle;resizable=0;points=[];" parent="Xnl6LlCrgO-XExTTDPLY-32" vertex="1" connectable="0">
          <mxGeometry x="-0.0184" y="-1" relative="1" as="geometry">
            <mxPoint y="-7" as="offset" />
          </mxGeometry>
        </mxCell>
        <mxCell id="Xnl6LlCrgO-XExTTDPLY-36" style="edgeStyle=orthogonalEdgeStyle;rounded=0;orthogonalLoop=1;jettySize=auto;html=1;entryX=1.082;entryY=0.728;entryDx=0;entryDy=0;entryPerimeter=0;exitX=-0.021;exitY=0.832;exitDx=0;exitDy=0;exitPerimeter=0;" parent="1" source="Xnl6LlCrgO-XExTTDPLY-4" target="Xnl6LlCrgO-XExTTDPLY-2" edge="1">
          <mxGeometry relative="1" as="geometry" />
        </mxCell>
        <mxCell id="Xnl6LlCrgO-XExTTDPLY-37" value="return float averageBy&lt;br&gt;Compeitition" style="edgeLabel;html=1;align=center;verticalAlign=middle;resizable=0;points=[];" parent="Xnl6LlCrgO-XExTTDPLY-36" vertex="1" connectable="0">
          <mxGeometry x="0.1465" y="-4" relative="1" as="geometry">
            <mxPoint x="10" y="-11" as="offset" />
          </mxGeometry>
        </mxCell>
      </root>
    </mxGraphModel>
  </diagram>
  <diagram id="kF78RxeMXOnxy0Ac62AH" name="Возможность подачи заявки">
    <mxGraphModel dx="1942" dy="920" grid="1" gridSize="10" guides="1" tooltips="1" connect="1" arrows="1" fold="1" page="1" pageScale="1" pageWidth="1654" pageHeight="1169" math="0" shadow="0">
      <root>
        <mxCell id="0" />
        <mxCell id="1" parent="0" />
        <mxCell id="wuZKxoCnyB9kbUM_pQqt-1" value=":Participant" style="shape=umlLifeline;perimeter=lifelinePerimeter;whiteSpace=wrap;html=1;container=1;collapsible=0;recursiveResize=0;outlineConnect=0;rounded=1;shadow=0;comic=0;labelBackgroundColor=none;strokeWidth=1;fontFamily=Verdana;fontSize=12;align=center;" parent="1" vertex="1">
          <mxGeometry x="214" y="30" width="100" height="340" as="geometry" />
        </mxCell>
        <mxCell id="wuZKxoCnyB9kbUM_pQqt-2" value="" style="html=1;points=[];perimeter=orthogonalPerimeter;rounded=0;shadow=0;comic=0;labelBackgroundColor=none;strokeWidth=1;fontFamily=Verdana;fontSize=12;align=center;" parent="wuZKxoCnyB9kbUM_pQqt-1" vertex="1">
          <mxGeometry x="45" y="100" width="10" height="200" as="geometry" />
        </mxCell>
        <mxCell id="eEIg1p4bf0huM2fTM6Qx-1" value="" style="endArrow=none;html=1;rounded=0;" parent="wuZKxoCnyB9kbUM_pQqt-1" edge="1">
          <mxGeometry width="50" height="50" relative="1" as="geometry">
            <mxPoint x="30" y="255" as="sourcePoint" />
            <mxPoint x="70" y="255" as="targetPoint" />
            <Array as="points">
              <mxPoint x="55" y="245" />
            </Array>
          </mxGeometry>
        </mxCell>
        <mxCell id="eEIg1p4bf0huM2fTM6Qx-3" style="rounded=0;orthogonalLoop=1;jettySize=auto;html=1;" parent="wuZKxoCnyB9kbUM_pQqt-1" target="wuZKxoCnyB9kbUM_pQqt-2" edge="1">
          <mxGeometry relative="1" as="geometry">
            <mxPoint x="70" y="255" as="sourcePoint" />
            <mxPoint x="64" y="282" as="targetPoint" />
            <Array as="points">
              <mxPoint x="70" y="260" />
              <mxPoint x="70" y="280" />
            </Array>
          </mxGeometry>
        </mxCell>
        <mxCell id="8KL6VPUjN5emstbGQnhW-1" value="[false]" style="edgeLabel;html=1;align=center;verticalAlign=middle;resizable=0;points=[];" parent="eEIg1p4bf0huM2fTM6Qx-3" vertex="1" connectable="0">
          <mxGeometry x="-0.7032" relative="1" as="geometry">
            <mxPoint x="15" y="6" as="offset" />
          </mxGeometry>
        </mxCell>
        <mxCell id="METnMCCMN5LjRr3whAKy-1" value=":Application" style="shape=umlLifeline;perimeter=lifelinePerimeter;whiteSpace=wrap;html=1;container=1;collapsible=0;recursiveResize=0;outlineConnect=0;rounded=1;shadow=0;comic=0;labelBackgroundColor=none;strokeWidth=1;fontFamily=Verdana;fontSize=12;align=center;" parent="1" vertex="1">
          <mxGeometry x="470" y="30" width="100" height="340" as="geometry" />
        </mxCell>
        <mxCell id="METnMCCMN5LjRr3whAKy-2" value="" style="html=1;points=[];perimeter=orthogonalPerimeter;rounded=0;shadow=0;comic=0;labelBackgroundColor=none;strokeWidth=1;fontFamily=Verdana;fontSize=12;align=center;" parent="METnMCCMN5LjRr3whAKy-1" vertex="1">
          <mxGeometry x="45" y="100" width="10" height="80" as="geometry" />
        </mxCell>
        <mxCell id="iTQ50jjWKA57CYl9T1Br-1" style="edgeStyle=orthogonalEdgeStyle;rounded=0;orthogonalLoop=1;jettySize=auto;html=1;exitX=1.155;exitY=0.07;exitDx=0;exitDy=0;exitPerimeter=0;entryX=-0.155;entryY=0.07;entryDx=0;entryDy=0;entryPerimeter=0;" parent="1" edge="1">
          <mxGeometry relative="1" as="geometry">
            <mxPoint x="270.54999999999995" y="155" as="sourcePoint" />
            <mxPoint x="513.45" y="155" as="targetPoint" />
          </mxGeometry>
        </mxCell>
        <mxCell id="iTQ50jjWKA57CYl9T1Br-3" value="isApplicant(ParticipantId)" style="edgeLabel;html=1;align=center;verticalAlign=middle;resizable=0;points=[];" parent="iTQ50jjWKA57CYl9T1Br-1" vertex="1" connectable="0">
          <mxGeometry x="-0.313" y="-1" relative="1" as="geometry">
            <mxPoint x="30" y="-10" as="offset" />
          </mxGeometry>
        </mxCell>
        <mxCell id="iTQ50jjWKA57CYl9T1Br-4" style="edgeStyle=orthogonalEdgeStyle;rounded=0;orthogonalLoop=1;jettySize=auto;html=1;entryX=0.9;entryY=0.176;entryDx=0;entryDy=0;entryPerimeter=0;exitX=-0.1;exitY=0.176;exitDx=0;exitDy=0;exitPerimeter=0;" parent="1" edge="1">
          <mxGeometry relative="1" as="geometry">
            <mxPoint x="515" y="196.19999999999993" as="sourcePoint" />
            <mxPoint x="267.9999999999999" y="196.19999999999993" as="targetPoint" />
          </mxGeometry>
        </mxCell>
        <mxCell id="iTQ50jjWKA57CYl9T1Br-5" value="return bool is_applicant" style="edgeLabel;html=1;align=center;verticalAlign=middle;resizable=0;points=[];" parent="iTQ50jjWKA57CYl9T1Br-4" vertex="1" connectable="0">
          <mxGeometry x="0.0267" y="-2" relative="1" as="geometry">
            <mxPoint y="-6" as="offset" />
          </mxGeometry>
        </mxCell>
        <mxCell id="iTQ50jjWKA57CYl9T1Br-10" value=": Форма добавления заявки" style="shape=umlLifeline;perimeter=lifelinePerimeter;whiteSpace=wrap;html=1;container=1;collapsible=0;recursiveResize=0;outlineConnect=0;rounded=1;shadow=0;comic=0;labelBackgroundColor=none;strokeWidth=1;fontFamily=Verdana;fontSize=12;align=center;" parent="1" vertex="1">
          <mxGeometry x="10" y="30" width="100" height="340" as="geometry" />
        </mxCell>
        <mxCell id="iTQ50jjWKA57CYl9T1Br-11" value="" style="html=1;points=[];perimeter=orthogonalPerimeter;rounded=0;shadow=0;comic=0;labelBackgroundColor=none;strokeWidth=1;fontFamily=Verdana;fontSize=12;align=center;" parent="iTQ50jjWKA57CYl9T1Br-10" vertex="1">
          <mxGeometry x="45" y="100" width="10" height="210" as="geometry" />
        </mxCell>
        <mxCell id="lpsDGo07S7_RNvoH_xPe-1" style="edgeStyle=orthogonalEdgeStyle;rounded=0;orthogonalLoop=1;jettySize=auto;html=1;entryX=0.2;entryY=0.075;entryDx=0;entryDy=0;entryPerimeter=0;exitX=0.9;exitY=0.07;exitDx=0;exitDy=0;exitPerimeter=0;" parent="1" source="iTQ50jjWKA57CYl9T1Br-11" target="wuZKxoCnyB9kbUM_pQqt-2" edge="1">
          <mxGeometry relative="1" as="geometry" />
        </mxCell>
        <mxCell id="lpsDGo07S7_RNvoH_xPe-2" value="IsAppCreation&lt;br&gt;Possible(ParticipantId)" style="edgeLabel;html=1;align=center;verticalAlign=middle;resizable=0;points=[];" parent="lpsDGo07S7_RNvoH_xPe-1" vertex="1" connectable="0">
          <mxGeometry x="-0.0922" y="2" relative="1" as="geometry">
            <mxPoint y="-13" as="offset" />
          </mxGeometry>
        </mxCell>
        <mxCell id="lpsDGo07S7_RNvoH_xPe-3" style="edgeStyle=orthogonalEdgeStyle;rounded=0;orthogonalLoop=1;jettySize=auto;html=1;" parent="1" edge="1">
          <mxGeometry relative="1" as="geometry">
            <mxPoint x="259" y="322" as="sourcePoint" />
            <mxPoint x="65" y="322" as="targetPoint" />
          </mxGeometry>
        </mxCell>
        <mxCell id="lpsDGo07S7_RNvoH_xPe-4" value="return bool is_app_creation_possible" style="edgeLabel;html=1;align=center;verticalAlign=middle;resizable=0;points=[];" parent="lpsDGo07S7_RNvoH_xPe-3" vertex="1" connectable="0">
          <mxGeometry x="0.0206" y="-1" relative="1" as="geometry">
            <mxPoint x="3" y="-8" as="offset" />
          </mxGeometry>
        </mxCell>
        <mxCell id="q-JSIs3RJhwz5053y8Kk-2" value="[false] ParticipatesInThreeOrMore&lt;br&gt;Applications(ParticipantId)" style="edgeLabel;html=1;align=center;verticalAlign=middle;resizable=0;points=[];" parent="1" vertex="1" connectable="0">
          <mxGeometry x="365.9972756200441" y="241.9983079711023" as="geometry" />
        </mxCell>
        <mxCell id="mwG0qWg3uzE0UxAWljyP-1" style="rounded=0;orthogonalLoop=1;jettySize=auto;html=1;entryX=1.019;entryY=0.6;entryDx=0;entryDy=0;entryPerimeter=0;" parent="1" target="wuZKxoCnyB9kbUM_pQqt-2" edge="1">
          <mxGeometry relative="1" as="geometry">
            <mxPoint x="284" y="230" as="sourcePoint" />
            <mxPoint x="274" y="257" as="targetPoint" />
            <Array as="points">
              <mxPoint x="284" y="250" />
            </Array>
          </mxGeometry>
        </mxCell>
        <mxCell id="mwG0qWg3uzE0UxAWljyP-3" value="&lt;div&gt;[true] ShowError&lt;/div&gt;&lt;div&gt;Message(&quot;Вы уже являетесь&amp;nbsp;&lt;/div&gt;&lt;div&gt;руководителем проекта&quot;)&lt;/div&gt;" style="rounded=0;orthogonalLoop=1;jettySize=auto;html=1;dashed=1;" parent="1" edge="1">
          <mxGeometry x="-0.0227" y="-29" relative="1" as="geometry">
            <mxPoint x="240" y="229" as="sourcePoint" />
            <mxPoint x="64" y="229" as="targetPoint" />
            <mxPoint as="offset" />
          </mxGeometry>
        </mxCell>
        <mxCell id="mwG0qWg3uzE0UxAWljyP-4" value="" style="endArrow=none;html=1;rounded=0;" parent="1" edge="1">
          <mxGeometry width="50" height="50" relative="1" as="geometry">
            <mxPoint x="240" y="230" as="sourcePoint" />
            <mxPoint x="284" y="230" as="targetPoint" />
            <Array as="points">
              <mxPoint x="265" y="220" />
            </Array>
          </mxGeometry>
        </mxCell>
        <mxCell id="eEIg1p4bf0huM2fTM6Qx-2" value="&lt;div&gt;[true] ShowError&lt;/div&gt;&lt;div&gt;Message(&quot;Вы уже участвуете&amp;nbsp;&lt;/div&gt;&lt;div&gt;в 3 и более проектах&quot;)&lt;/div&gt;" style="rounded=0;orthogonalLoop=1;jettySize=auto;html=1;dashed=1;" parent="1" edge="1">
          <mxGeometry x="-0.0227" y="-29" relative="1" as="geometry">
            <mxPoint x="245" y="285" as="sourcePoint" />
            <mxPoint x="69" y="285" as="targetPoint" />
            <mxPoint as="offset" />
          </mxGeometry>
        </mxCell>
      </root>
    </mxGraphModel>
  </diagram>
  <diagram id="JkXgVBDQaVHo2YnIac6n" name="Проверить форму заявки">
    <mxGraphModel dx="1214" dy="575" grid="1" gridSize="10" guides="1" tooltips="1" connect="1" arrows="1" fold="1" page="1" pageScale="1" pageWidth="1654" pageHeight="1169" math="0" shadow="0">
      <root>
        <mxCell id="0" />
        <mxCell id="1" parent="0" />
        <mxCell id="ky4_iO_0owDcVytnnOwx-1" value="&lt;font style=&quot;font-size: 8px;&quot;&gt;:Форма добавления предварительной информации&lt;/font&gt;" style="shape=umlLifeline;perimeter=lifelinePerimeter;whiteSpace=wrap;html=1;container=1;collapsible=0;recursiveResize=0;outlineConnect=0;rounded=1;shadow=0;comic=0;labelBackgroundColor=none;strokeWidth=1;fontFamily=Verdana;fontSize=12;align=center;" parent="1" vertex="1">
          <mxGeometry x="270" y="70" width="100" height="430" as="geometry" />
        </mxCell>
        <mxCell id="ky4_iO_0owDcVytnnOwx-2" value="" style="html=1;points=[];perimeter=orthogonalPerimeter;rounded=0;shadow=0;comic=0;labelBackgroundColor=none;strokeWidth=1;fontFamily=Verdana;fontSize=12;align=center;" parent="ky4_iO_0owDcVytnnOwx-1" vertex="1">
          <mxGeometry x="45" y="100" width="10" height="330" as="geometry" />
        </mxCell>
        <mxCell id="euVbiuV8VrILdvcyr8TR-3" value="&lt;div&gt;[false] ShowError&lt;/div&gt;&lt;div&gt;Message(&quot;Указан неверный бюджет&quot;)&lt;/div&gt;" style="rounded=0;orthogonalLoop=1;jettySize=auto;html=1;dashed=1;" parent="ky4_iO_0owDcVytnnOwx-1" edge="1">
          <mxGeometry x="-0.0227" y="-29" relative="1" as="geometry">
            <mxPoint x="31" y="299" as="sourcePoint" />
            <mxPoint x="-145" y="299" as="targetPoint" />
            <mxPoint as="offset" />
          </mxGeometry>
        </mxCell>
        <mxCell id="euVbiuV8VrILdvcyr8TR-4" value="" style="endArrow=none;html=1;rounded=0;" parent="ky4_iO_0owDcVytnnOwx-1" edge="1">
          <mxGeometry width="50" height="50" relative="1" as="geometry">
            <mxPoint x="31" y="299" as="sourcePoint" />
            <mxPoint x="80" y="299" as="targetPoint" />
            <Array as="points">
              <mxPoint x="56" y="289" />
            </Array>
          </mxGeometry>
        </mxCell>
        <mxCell id="WUIiSdKhmlpkO3zwbT99-1" value="&lt;div&gt;[false] ShowError&lt;/div&gt;&lt;div&gt;Message(&quot;Указано неверное&amp;nbsp;&lt;/div&gt;&lt;div&gt;имя члена жюри&quot;)&lt;/div&gt;" style="rounded=0;orthogonalLoop=1;jettySize=auto;html=1;dashed=1;" parent="ky4_iO_0owDcVytnnOwx-1" edge="1">
          <mxGeometry x="-0.0227" y="-29" relative="1" as="geometry">
            <mxPoint x="30" y="377" as="sourcePoint" />
            <mxPoint x="-146" y="377" as="targetPoint" />
            <mxPoint as="offset" />
          </mxGeometry>
        </mxCell>
        <mxCell id="WUIiSdKhmlpkO3zwbT99-2" value="" style="endArrow=none;html=1;rounded=0;" parent="ky4_iO_0owDcVytnnOwx-1" edge="1">
          <mxGeometry width="50" height="50" relative="1" as="geometry">
            <mxPoint x="31" y="376" as="sourcePoint" />
            <mxPoint x="80" y="376" as="targetPoint" />
            <Array as="points">
              <mxPoint x="56" y="366" />
            </Array>
          </mxGeometry>
        </mxCell>
        <mxCell id="ky4_iO_0owDcVytnnOwx-3" value=":Competition" style="shape=umlLifeline;perimeter=lifelinePerimeter;whiteSpace=wrap;html=1;container=1;collapsible=0;recursiveResize=0;outlineConnect=0;rounded=1;shadow=0;comic=0;labelBackgroundColor=none;strokeWidth=1;fontFamily=Verdana;fontSize=12;align=center;" parent="1" vertex="1">
          <mxGeometry x="70" y="70" width="100" height="430" as="geometry" />
        </mxCell>
        <mxCell id="ky4_iO_0owDcVytnnOwx-4" value="" style="html=1;points=[];perimeter=orthogonalPerimeter;rounded=0;shadow=0;comic=0;labelBackgroundColor=none;strokeWidth=1;fontFamily=Verdana;fontSize=12;align=center;" parent="ky4_iO_0owDcVytnnOwx-3" vertex="1">
          <mxGeometry x="45" y="100" width="10" height="330" as="geometry" />
        </mxCell>
        <mxCell id="yOqwcj2Wz1-6stEpRzPx-2" value=":Foundation" style="shape=umlLifeline;perimeter=lifelinePerimeter;whiteSpace=wrap;html=1;container=1;collapsible=0;recursiveResize=0;outlineConnect=0;rounded=1;shadow=0;comic=0;labelBackgroundColor=none;strokeWidth=1;fontFamily=Verdana;fontSize=12;align=center;" parent="1" vertex="1">
          <mxGeometry x="620" y="70" width="100" height="400" as="geometry" />
        </mxCell>
        <mxCell id="yOqwcj2Wz1-6stEpRzPx-3" value="" style="html=1;points=[];perimeter=orthogonalPerimeter;rounded=0;shadow=0;comic=0;labelBackgroundColor=none;strokeWidth=1;fontFamily=Verdana;fontSize=12;align=center;" parent="yOqwcj2Wz1-6stEpRzPx-2" vertex="1">
          <mxGeometry x="45" y="174" width="10" height="80" as="geometry" />
        </mxCell>
        <mxCell id="yOqwcj2Wz1-6stEpRzPx-4" value=":User" style="shape=umlLifeline;perimeter=lifelinePerimeter;whiteSpace=wrap;html=1;container=1;collapsible=0;recursiveResize=0;outlineConnect=0;rounded=1;shadow=0;comic=0;labelBackgroundColor=none;strokeWidth=1;fontFamily=Verdana;fontSize=12;align=center;" parent="1" vertex="1">
          <mxGeometry x="457" y="70" width="100" height="410" as="geometry" />
        </mxCell>
        <mxCell id="yOqwcj2Wz1-6stEpRzPx-5" value="" style="html=1;points=[];perimeter=orthogonalPerimeter;rounded=0;shadow=0;comic=0;labelBackgroundColor=none;strokeWidth=1;fontFamily=Verdana;fontSize=12;align=center;" parent="yOqwcj2Wz1-6stEpRzPx-4" vertex="1">
          <mxGeometry x="45" y="100" width="10" height="80" as="geometry" />
        </mxCell>
        <mxCell id="yOqwcj2Wz1-6stEpRzPx-16" value="" style="html=1;points=[];perimeter=orthogonalPerimeter;rounded=0;shadow=0;comic=0;labelBackgroundColor=none;strokeWidth=1;fontFamily=Verdana;fontSize=12;align=center;" parent="yOqwcj2Wz1-6stEpRzPx-4" vertex="1">
          <mxGeometry x="45" y="287" width="10" height="80" as="geometry" />
        </mxCell>
        <mxCell id="yOqwcj2Wz1-6stEpRzPx-6" style="edgeStyle=orthogonalEdgeStyle;rounded=0;orthogonalLoop=1;jettySize=auto;html=1;entryX=0.2;entryY=0.11;entryDx=0;entryDy=0;entryPerimeter=0;exitX=1.283;exitY=0.11;exitDx=0;exitDy=0;exitPerimeter=0;" parent="1" edge="1">
          <mxGeometry relative="1" as="geometry">
            <mxPoint x="127.82999999999993" y="191.79999999999995" as="sourcePoint" />
            <mxPoint x="317" y="191.79999999999995" as="targetPoint" />
          </mxGeometry>
        </mxCell>
        <mxCell id="yOqwcj2Wz1-6stEpRzPx-7" value="CheckFormCorrectness()" style="edgeLabel;html=1;align=center;verticalAlign=middle;resizable=0;points=[];" parent="yOqwcj2Wz1-6stEpRzPx-6" vertex="1" connectable="0">
          <mxGeometry x="-0.0132" y="1" relative="1" as="geometry">
            <mxPoint y="-7" as="offset" />
          </mxGeometry>
        </mxCell>
        <mxCell id="yOqwcj2Wz1-6stEpRzPx-8" style="edgeStyle=orthogonalEdgeStyle;rounded=0;orthogonalLoop=1;jettySize=auto;html=1;entryX=0.167;entryY=0.353;entryDx=0;entryDy=0;entryPerimeter=0;exitX=1.033;exitY=0.139;exitDx=0;exitDy=0;exitPerimeter=0;" parent="1" edge="1">
          <mxGeometry relative="1" as="geometry">
            <mxPoint x="325.3299999999999" y="203.80000000000007" as="sourcePoint" />
            <mxPoint x="503.6700000000001" y="204.24000000000012" as="targetPoint" />
          </mxGeometry>
        </mxCell>
        <mxCell id="yOqwcj2Wz1-6stEpRzPx-9" value="DoesUserBelongToStaff(userId)" style="edgeLabel;html=1;align=center;verticalAlign=middle;resizable=0;points=[];" parent="yOqwcj2Wz1-6stEpRzPx-8" vertex="1" connectable="0">
          <mxGeometry x="-0.0419" y="3" relative="1" as="geometry">
            <mxPoint y="-6" as="offset" />
          </mxGeometry>
        </mxCell>
        <mxCell id="yOqwcj2Wz1-6stEpRzPx-10" style="edgeStyle=orthogonalEdgeStyle;rounded=0;orthogonalLoop=1;jettySize=auto;html=1;exitX=0.083;exitY=0.775;exitDx=0;exitDy=0;exitPerimeter=0;entryX=1.067;entryY=0.22;entryDx=0;entryDy=0;entryPerimeter=0;" parent="1" edge="1">
          <mxGeometry relative="1" as="geometry">
            <mxPoint x="502.8299999999999" y="231" as="sourcePoint" />
            <mxPoint x="325.6700000000001" y="230.60000000000002" as="targetPoint" />
          </mxGeometry>
        </mxCell>
        <mxCell id="yOqwcj2Wz1-6stEpRzPx-11" value="return bool user_belongs_to_staff" style="edgeLabel;html=1;align=center;verticalAlign=middle;resizable=0;points=[];" parent="yOqwcj2Wz1-6stEpRzPx-10" vertex="1" connectable="0">
          <mxGeometry x="0.0434" relative="1" as="geometry">
            <mxPoint y="-10" as="offset" />
          </mxGeometry>
        </mxCell>
        <mxCell id="yOqwcj2Wz1-6stEpRzPx-12" style="edgeStyle=orthogonalEdgeStyle;rounded=0;orthogonalLoop=1;jettySize=auto;html=1;entryX=-0.05;entryY=0.379;entryDx=0;entryDy=0;entryPerimeter=0;" parent="1" edge="1">
          <mxGeometry relative="1" as="geometry">
            <mxPoint x="340" y="270" as="sourcePoint" />
            <mxPoint x="664.5" y="270.32000000000005" as="targetPoint" />
          </mxGeometry>
        </mxCell>
        <mxCell id="yOqwcj2Wz1-6stEpRzPx-13" value="CheckIfFoundationBudgetIsSufficient(int asked_budget)" style="edgeLabel;html=1;align=center;verticalAlign=middle;resizable=0;points=[];" parent="yOqwcj2Wz1-6stEpRzPx-12" vertex="1" connectable="0">
          <mxGeometry x="-0.5991" y="1" relative="1" as="geometry">
            <mxPoint x="94" y="-9" as="offset" />
          </mxGeometry>
        </mxCell>
        <mxCell id="yOqwcj2Wz1-6stEpRzPx-14" style="edgeStyle=orthogonalEdgeStyle;rounded=0;orthogonalLoop=1;jettySize=auto;html=1;entryX=1.117;entryY=0.706;entryDx=0;entryDy=0;entryPerimeter=0;exitX=0;exitY=0.754;exitDx=0;exitDy=0;exitPerimeter=0;" parent="1" edge="1">
          <mxGeometry relative="1" as="geometry">
            <mxPoint x="665.0000000000002" y="310.32000000000005" as="sourcePoint" />
            <mxPoint x="326.16999999999985" y="311.20000000000005" as="targetPoint" />
          </mxGeometry>
        </mxCell>
        <mxCell id="yOqwcj2Wz1-6stEpRzPx-15" value="return bool is_budget_sufficient" style="edgeLabel;html=1;align=center;verticalAlign=middle;resizable=0;points=[];" parent="yOqwcj2Wz1-6stEpRzPx-14" vertex="1" connectable="0">
          <mxGeometry x="0.366" relative="1" as="geometry">
            <mxPoint x="-16" y="-9" as="offset" />
          </mxGeometry>
        </mxCell>
        <mxCell id="yOqwcj2Wz1-6stEpRzPx-17" style="edgeStyle=orthogonalEdgeStyle;rounded=0;orthogonalLoop=1;jettySize=auto;html=1;entryX=-0.055;entryY=0.171;entryDx=0;entryDy=0;entryPerimeter=0;" parent="1" target="yOqwcj2Wz1-6stEpRzPx-16" edge="1">
          <mxGeometry relative="1" as="geometry">
            <mxPoint x="350" y="370" as="sourcePoint" />
          </mxGeometry>
        </mxCell>
        <mxCell id="ym58p_KBpq4sB5Mk8jmU-1" value="[true] DoesJuryExist&lt;br&gt;(string userName)" style="edgeLabel;html=1;align=center;verticalAlign=middle;resizable=0;points=[];" parent="yOqwcj2Wz1-6stEpRzPx-17" vertex="1" connectable="0">
          <mxGeometry x="-0.4491" y="1" relative="1" as="geometry">
            <mxPoint x="29" y="-15" as="offset" />
          </mxGeometry>
        </mxCell>
        <mxCell id="ym58p_KBpq4sB5Mk8jmU-2" style="edgeStyle=orthogonalEdgeStyle;rounded=0;orthogonalLoop=1;jettySize=auto;html=1;entryX=1.18;entryY=0.745;entryDx=0;entryDy=0;entryPerimeter=0;" parent="1" target="ky4_iO_0owDcVytnnOwx-2" edge="1">
          <mxGeometry relative="1" as="geometry">
            <mxPoint x="502" y="415" as="sourcePoint" />
            <mxPoint x="350" y="415" as="targetPoint" />
          </mxGeometry>
        </mxCell>
        <mxCell id="ym58p_KBpq4sB5Mk8jmU-3" value="return bool jury_exists" style="edgeLabel;html=1;align=center;verticalAlign=middle;resizable=0;points=[];" parent="ym58p_KBpq4sB5Mk8jmU-2" vertex="1" connectable="0">
          <mxGeometry x="0.0775" y="-1" relative="1" as="geometry">
            <mxPoint y="-8" as="offset" />
          </mxGeometry>
        </mxCell>
        <mxCell id="ym58p_KBpq4sB5Mk8jmU-4" style="edgeStyle=orthogonalEdgeStyle;rounded=0;orthogonalLoop=1;jettySize=auto;html=1;exitX=0.2;exitY=0.95;exitDx=0;exitDy=0;exitPerimeter=0;entryX=0.9;entryY=0.948;entryDx=0;entryDy=0;entryPerimeter=0;" parent="1" edge="1">
          <mxGeometry relative="1" as="geometry">
            <mxPoint x="317" y="483" as="sourcePoint" />
            <mxPoint x="124" y="482.43999999999994" as="targetPoint" />
          </mxGeometry>
        </mxCell>
        <mxCell id="ym58p_KBpq4sB5Mk8jmU-5" value="return bool form_is_right" style="edgeLabel;html=1;align=center;verticalAlign=middle;resizable=0;points=[];" parent="ym58p_KBpq4sB5Mk8jmU-4" vertex="1" connectable="0">
          <mxGeometry x="0.27" relative="1" as="geometry">
            <mxPoint x="15" y="-8" as="offset" />
          </mxGeometry>
        </mxCell>
        <mxCell id="euVbiuV8VrILdvcyr8TR-1" value="&lt;div&gt;[false] ShowError&lt;/div&gt;&lt;div&gt;Message(&quot;Пользователь не является&amp;nbsp;&lt;/div&gt;&lt;div&gt;членом Фонда&quot;)&lt;/div&gt;" style="rounded=0;orthogonalLoop=1;jettySize=auto;html=1;dashed=1;" parent="1" edge="1">
          <mxGeometry x="-0.0227" y="-29" relative="1" as="geometry">
            <mxPoint x="296" y="270" as="sourcePoint" />
            <mxPoint x="120" y="270" as="targetPoint" />
            <mxPoint as="offset" />
          </mxGeometry>
        </mxCell>
        <mxCell id="euVbiuV8VrILdvcyr8TR-2" value="" style="endArrow=none;html=1;rounded=0;" parent="1" edge="1">
          <mxGeometry width="50" height="50" relative="1" as="geometry">
            <mxPoint x="296" y="270" as="sourcePoint" />
            <mxPoint x="340" y="270" as="targetPoint" />
            <Array as="points">
              <mxPoint x="321" y="260" />
            </Array>
          </mxGeometry>
        </mxCell>
        <mxCell id="1qCjwesnTAw36buAviqd-1" value="" style="swimlane;startSize=0;" parent="1" vertex="1">
          <mxGeometry x="490" y="330" width="130" height="130" as="geometry" />
        </mxCell>
        <mxCell id="1qCjwesnTAw36buAviqd-2" value="loop [each User]" style="text;html=1;align=center;verticalAlign=middle;resizable=0;points=[];autosize=1;strokeColor=none;fillColor=none;" parent="1" vertex="1">
          <mxGeometry x="501" y="328" width="110" height="30" as="geometry" />
        </mxCell>
        <mxCell id="WUIiSdKhmlpkO3zwbT99-5" value="" style="endArrow=classic;html=1;rounded=0;entryX=1.147;entryY=0.886;entryDx=0;entryDy=0;entryPerimeter=0;" parent="1" target="ky4_iO_0owDcVytnnOwx-2" edge="1">
          <mxGeometry width="50" height="50" relative="1" as="geometry">
            <mxPoint x="350" y="446" as="sourcePoint" />
            <mxPoint x="400" y="450" as="targetPoint" />
            <Array as="points">
              <mxPoint x="350" y="462" />
            </Array>
          </mxGeometry>
        </mxCell>
        <mxCell id="WUIiSdKhmlpkO3zwbT99-6" value="[true]" style="text;html=1;align=center;verticalAlign=middle;resizable=0;points=[];autosize=1;strokeColor=none;fillColor=none;" parent="1" vertex="1">
          <mxGeometry x="341" y="438" width="50" height="30" as="geometry" />
        </mxCell>
      </root>
    </mxGraphModel>
  </diagram>
</mxfile>
